<svg width="1024" height="1024" viewBox="0 0 1024 1024" fill="none" xmlns="http://www.w3.org/2000/svg">
<g clip-path="url(#clip0_1_2)">
<rect width="1024" height="1024" fill="white"/>
<path d="M278.832 936.025C314.415 935.602 350.198 935.034 385.386 930.832C396.844 931.973 417.055 942.655 420.452 925.846C423.355 912.151 413.206 900.361 417.634 885.783C419.391 851.482 424.291 816.675 437.703 784.941C455.05 780.873 476.847 783.684 495.906 782.263C514.522 780.592 512.383 764.833 512.136 750.359C513.419 712.353 512.069 674.058 522.023 637.006C536.733 562.156 555.68 488.197 570.613 413.374C604.851 380.747 641.151 350.051 669.256 311.68C696.783 279.109 719.038 242.197 751.235 213.738C763.195 205.562 762.468 189.64 776.93 184.072C792.53 171.578 808.453 159.681 828.212 154.87C842.958 140.177 863.333 126.415 868.027 105.786C860.411 66.6388 811.993 97.5684 797.228 117.88C766.488 145.845 726.526 154.996 689.413 164.788C667.266 182.948 642.974 199.781 625.688 222.566C614.537 247.198 586.139 251.256 568.234 268.957C553.159 279.438 534.233 283.202 519.516 296.641C495.015 330.833 456.211 349.538 425.807 377.673C414.807 389.229 388.003 390.121 386.64 370.352C384.454 350.403 410.487 347.389 422.424 336.695C458.035 314.085 492.168 287.854 521.783 258.471C543.134 247.5 565.846 239.876 587.977 230.752C594.939 213.377 586.081 197.466 566.548 195.216C551.282 193.04 542.763 210.921 533.591 220.035C521.146 232.423 509.149 221.566 495.938 227.811C471.683 239.694 444.838 239.019 418.535 240.976C389.385 259.046 356.297 266.519 322.72 270.413C304.629 274.024 282.977 264.148 269.37 280.477C252.592 291.356 243.646 313.393 225.63 321.337C204.902 320.016 205.266 287.458 195.27 271.399C190.129 257.492 183.778 245.076 167.04 245.462C142.671 238.261 113.148 253.506 110.199 280.041C106.315 296.692 112.133 312.274 121.015 326.261C115.246 340.556 128.508 360.023 144.188 357.932C160.86 363.671 169.867 380.476 182.811 391.597C191.729 427.505 183.087 466.306 197.453 501.379C203.939 528.636 229.175 544.643 250.927 559.557C264.699 570.497 282.864 579.753 300.249 574.988C310.652 566.319 320.082 556.71 334.758 557.088C349.115 557.52 370.177 551.543 367.845 533.557C363.244 519.871 389.49 510.892 391.337 518.12C391.828 551.058 393.424 584.813 391.261 617.289C380.517 633.232 373.878 650.584 372.934 669.892C370.992 706.617 373.04 743.849 375.014 780.648C377.468 808.459 378.436 836.598 376.673 864.407C369.315 903.199 332.02 914.143 298.218 921.6C290.533 925.518 281.088 926.241 278.832 936.025Z" fill="url(#paint0_linear_1_2)" fill-opacity="0.34" stroke="black" stroke-opacity="0.34" stroke-width="1.17307"/>
<path d="M453.1 920.8C449.5 924.4 442.9 927.7 433.3 930.7C424.3 933.7 417.1 935.2 411.7 935.2C406.9 935.2 404.5 934 404.5 931.6C415.9 854.2 421.6 776.5 421.6 698.5C421.6 554.5 412.9 427.3 395.5 316.9L418.9 300.7L499.9 342.1C495.7 454.3 490.6 550.9 484.6 631.9C556.6 501.1 616.9 400.9 665.5 331.3L743.8 313.3L769.9 334C686.5 437.2 622.6 518.5 578.2 577.9C593.2 624.1 619.9 684.4 658.3 758.8C696.7 832.6 730.6 888.7 760 927.1V928C760 934.6 750.1 937.9 730.3 937.9C725.5 937.9 721.9 937.6 719.5 937C672.1 891.4 607.3 795.7 525.1 649.9C502.3 682.3 486.7 704.8 478.3 717.4C469.9 811.6 461.5 879.4 453.1 920.8Z" fill="black"/>
</g>
<defs>
<linearGradient id="paint0_linear_1_2" x1="836.5" y1="87" x2="306" y2="936" gradientUnits="userSpaceOnUse">
<stop/>
<stop offset="1" stop-opacity="0.66"/>
</linearGradient>
<clipPath id="clip0_1_2">
<rect width="1024" height="1024" fill="white"/>
</clipPath>
</defs>
</svg>
